<svg xmlns="http://www.w3.org/2000/svg" xmlns:xlink="http://www.w3.org/1999/xlink" width="100" height="100"><defs><path id="a" d="M99.96 49.9a49.94 49.94 0 0 1-49.98 49.92C22.38 99.82 0 77.47 0 49.9S22.38 0 49.98 0a49.94 49.94 0 0 1 49.98 49.9"/><path id="c" d="M0 .1h58.5v43.6H0z"/><path id="e" d="M.06.1h21.67v31.33H.06z"/></defs><g fill="none" fill-rule="evenodd"><mask id="b" fill="#fff"><use xlink:href="#a"/></mask><use fill="#F5F5F5" xlink:href="#a"/><g mask="url(#b)"><g transform="translate(20 27.01)"><mask id="d" fill="#fff"><use xlink:href="#c"/></mask><path fill="#F90" d="M39.08 11.02a.91.91 0 0 1-.58 1.14.9.9 0 0 1-1.14-.58l-.56-1.74a.91.91 0 0 1 .58-1.15.9.9 0 0 1 1.14.59l.56 1.74zm1.68 5.2a.91.91 0 0 1-.58 1.15.9.9 0 0 1-1.14-.59l-.56-1.73a.91.91 0 0 1 .58-1.15.9.9 0 0 1 1.14.58l.56 1.74zm1.68 5.2a.91.91 0 0 1-.58 1.15.9.9 0 0 1-1.15-.58l-.56-1.74a.91.91 0 0 1 .59-1.15.9.9 0 0 1 1.14.59l.56 1.73zm1.68 5.2a.91.91 0 0 1-.58 1.16.9.9 0 0 1-1.15-.59l-.56-1.73a.91.91 0 0 1 .59-1.15.9.9 0 0 1 1.14.58l.56 1.74zM48.92.15L38.14 3.65a.46.46 0 0 0-.3.58l.13.38c.3.94-.15 1.97-1.07 2.32a1.81 1.81 0 0 1-2.36-1.14l-.14-.44a.45.45 0 0 0-.57-.29L.63 15.9a.91.91 0 0 0-.59 1.14l8.4 26.03a.9.9 0 0 0 1.14.58l33.2-10.83a.46.46 0 0 0 .29-.58l-.12-.38c-.3-.94.15-1.97 1.06-2.32a1.81 1.81 0 0 1 2.37 1.14l.14.44c.08.24.33.37.57.29l10.78-3.52a.91.91 0 0 0 .58-1.15L50.06.72a.9.9 0 0 0-1.14-.58z" mask="url(#d)"/></g><g transform="translate(56.77 27.01)"><mask id="f" fill="#fff"><use xlink:href="#e"/></mask><path fill="#FFB048" d="M1.76 9.28l.56 1.74a.91.91 0 0 1-.59 1.14l.56 1.74a.9.9 0 0 1 1.15.58L4 16.22a.91.91 0 0 1-.59 1.15l.56 1.73a.9.9 0 0 1 1.15.59l.56 1.73a.91.91 0 0 1-.59 1.15l.56 1.74a.9.9 0 0 1 1.14.58l.56 1.74a.91.91 0 0 1-.58 1.15l.56 1.73a1.81 1.81 0 0 1 2.28 1.17l.14.44c.08.24.34.37.57.29l10.78-3.52a.91.91 0 0 0 .59-1.15L13.29.72a.9.9 0 0 0-1.14-.58L1.37 3.65a.46.46 0 0 0-.29.58l.14.43a1.83 1.83 0 0 1-1.17 2.3l.56 1.73a.9.9 0 0 1 1.15.59" mask="url(#f)"/></g><path fill="#FFF" d="M73.97 39.88L42.93 50 38.73 37l-1.72.56 4.2 13.01-17.25 5.63.56 1.73 17.25-5.62 4.2 13 1.72-.56-4.2-13L74.53 41.6z"/><path fill="#FFF" d="M51.48 49.13a1.13 1.13 0 0 1-.55-1.73l-8 2.6-2.6-8.04v.02a1.12 1.12 0 0 1-1.72.54l2.6 8.05-8 2.61a1.13 1.13 0 0 1 .56 1.72v.02l8-2.61 2.6 8.04v-.01a1.12 1.12 0 0 1 1.7-.56h.02l-2.6-8.04 8-2.6-.01-.01"/><path fill="#FFF" d="M51.75 55.98a2.44 2.44 0 0 1-3.22 1.05c-1.5-.77-3.4-3.3-4.58-5.05 2.1-.08 5.25 0 6.75.76.57.3 1 .8 1.19 1.4a2.4 2.4 0 0 1-.14 1.84m-10.98 3.58a2.44 2.44 0 0 1-3.21 1.05 2.38 2.38 0 0 1-1.2-1.4 2.4 2.4 0 0 1 .15-1.84c.77-1.5 3.27-3.42 5.02-4.6.08 2.11 0 5.28-.76 6.79m-7.96-11.4a2.4 2.4 0 0 1 .14-1.83c.3-.57.79-1 1.4-1.19a2.36 2.36 0 0 1 1.82.15c1.5.76 3.4 3.29 4.58 5.05-2.1.07-5.26 0-6.75-.77a2.38 2.38 0 0 1-1.2-1.4m11.13-5.42c.29-.57.78-1 1.39-1.19a2.36 2.36 0 0 1 1.82.14 2.4 2.4 0 0 1 1.04 3.23c-.76 1.52-3.27 3.44-5.02 4.62-.07-2.12 0-5.29.77-6.8m1.56 7.38c1.63-1.2 3.54-2.84 4.3-4.36.52-1 .6-2.15.26-3.23a4.2 4.2 0 0 0-2.08-2.46c-1-.51-2.14-.6-3.21-.26a4.18 4.18 0 0 0-2.45 2.1c-.77 1.52-.97 4.04-.98 6.08-1.2-1.64-2.83-3.56-4.34-4.34a4.15 4.15 0 0 0-3.2-.25 4.18 4.18 0 0 0-2.45 2.1 4.22 4.22 0 0 0-.26 3.22 4.2 4.2 0 0 0 2.1 2.46c1.5.78 4 .98 6.03 1-1.63 1.2-3.54 2.83-4.31 4.36a4.22 4.22 0 0 0-.26 3.22 4.2 4.2 0 0 0 2.1 2.46c1 .52 2.13.6 3.2.26a4.18 4.18 0 0 0 2.44-2.1c.78-1.52.97-4.04.99-6.08 1.2 1.64 2.82 3.57 4.34 4.34 1 .51 2.13.6 3.2.26a4.18 4.18 0 0 0 2.45-2.1 4.22 4.22 0 0 0 .25-3.23 4.2 4.2 0 0 0-2.09-2.46c-1.5-.78-4-.97-6.03-.99"/></g></g></svg>